<svg xmlns="http://www.w3.org/2000/svg"  viewBox="0 0 48 48" width="48px" height="48px"><path d="M 15.5 5 C 11.928062 5 9 7.9280619 9 11.5 L 9 34 L 5.5 34 C 4.1364058 34 3 35.136406 3 36.5 L 3 38.5 C 3 40.967501 5.0324991 43 7.5 43 L 34.5 43 C 36.967501 43 39 40.967501 39 38.5 L 39 14 L 42.5 14 C 43.863594 14 45 12.863594 45 11.5 L 45 9.5 C 45 7.1132596 43.09387 5.1504737 40.736328 5.0234375 A 1.50015 1.50015 0 0 0 40.5 5 L 15.5 5 z M 15.5 8 L 36.306641 8 C 36.134564 8.4744795 36 8.9694092 36 9.5 L 36 12.253906 A 1.50015 1.50015 0 0 0 36 12.740234 L 36 38.5 C 36 39.346499 35.346499 40 34.5 40 C 33.653501 40 33 39.346499 33 38.5 L 33 36.5 C 33 35.136406 31.863594 34 30.5 34 L 12 34 L 12 11.5 C 12 9.5499381 13.549938 8 15.5 8 z M 40.5 8 C 41.346499 8 42 8.6535009 42 9.5 L 42 11 L 39 11 L 39 9.5 C 39 8.6535009 39.653501 8 40.5 8 z M 17.5 13 A 1.50015 1.50015 0 1 0 17.5 16 L 30.5 16 A 1.50015 1.50015 0 1 0 30.5 13 L 17.5 13 z M 17.5 20 A 1.50015 1.50015 0 1 0 17.5 23 L 30.5 23 A 1.50015 1.50015 0 1 0 30.5 20 L 17.5 20 z M 17.5 27 A 1.50015 1.50015 0 1 0 17.5 30 L 28.5 30 A 1.50015 1.50015 0 1 0 28.5 27 L 17.5 27 z M 6 37 L 10.253906 37 A 1.50015 1.50015 0 0 0 10.740234 37 L 30 37 L 30 38.5 C 30 39.030591 30.134564 39.52552 30.306641 40 L 7.5 40 C 6.6535009 40 6 39.346499 6 38.5 L 6 37 z"/></svg>