<?xml version="1.0" encoding="UTF-8" standalone="no" ?>
<!DOCTYPE svg PUBLIC "-//W3C//DTD SVG 1.1//EN" "http://www.w3.org/Graphics/SVG/1.1/DTD/svg11.dtd">
<svg xmlns="http://www.w3.org/2000/svg" xmlns:xlink="http://www.w3.org/1999/xlink" version="1.1" width="1080" height="1080" viewBox="0 0 1080 1080" xml:space="preserve">
<desc>Created with Fabric.js 5.2.4</desc>
<defs>
</defs>
<g transform="matrix(1 0 0 1 540 540)" id="7a2c8be0-f170-4afb-97a2-0a77868e1fa2"  >
<rect style="stroke: none; stroke-width: 1; stroke-dasharray: none; stroke-linecap: butt; stroke-dashoffset: 0; stroke-linejoin: miter; stroke-miterlimit: 4; fill: rgb(255,255,255); fill-rule: nonzero; opacity: 1; visibility: hidden;" vector-effect="non-scaling-stroke"  x="-540" y="-540" rx="0" ry="0" width="1080" height="1080" />
</g>
<g transform="matrix(1 0 0 1 540 540)" id="3acbe25a-db12-4096-825c-276370644b21"  >
</g>
<g transform="matrix(21.6 0 0 21.6 540 540)"  >
<g style=""   >
		<g transform="matrix(1 0 0 1 0 0.08)" id="Layer_1"  >
<path style="stroke: none; stroke-width: 1; stroke-dasharray: none; stroke-linecap: butt; stroke-dashoffset: 0; stroke-linejoin: miter; stroke-miterlimit: 4; fill: rgb(0,0,0); fill-rule: nonzero; opacity: 1;" vector-effect="non-scaling-stroke"  transform=" translate(-25, -25.08)" d="M 16.996 0.992 L 1 3.125 L 1 49.302 L 17.008 45.033 L 32.943 49.017 L 49 46.875 L 49 0.858 L 32.996 2.992 L 16.996 0.992 z M 18 3.133 L 32 4.883 L 32 46.719 L 18 43.219 L 18 3.133 z M 3 4.875 L 16 3.142 L 16 43.232000000000006 L 3 46.698 L 3 4.875 z M 47 45.125 L 34 46.858 L 34 4.875 L 47 3.142 L 47 45.125 z" stroke-linecap="round" />
</g>
		<g transform="matrix(1 0 0 1 12 -10)" id="Layer_1"  >
<rect style="stroke: none; stroke-width: 1; stroke-dasharray: none; stroke-linecap: butt; stroke-dashoffset: 0; stroke-linejoin: miter; stroke-miterlimit: 4; fill: rgb(0,0,0); fill-rule: nonzero; opacity: 1;" vector-effect="non-scaling-stroke"  x="-1" y="-1" rx="0" ry="0" width="2" height="2" />
</g>
		<g transform="matrix(1 0 0 1 16 -7)" id="Layer_1"  >
<rect style="stroke: none; stroke-width: 1; stroke-dasharray: none; stroke-linecap: butt; stroke-dashoffset: 0; stroke-linejoin: miter; stroke-miterlimit: 4; fill: rgb(0,0,0); fill-rule: nonzero; opacity: 1;" vector-effect="non-scaling-stroke"  x="-1" y="-1" rx="0" ry="0" width="2" height="2" />
</g>
		<g transform="matrix(1 0 0 1 16 -2)" id="Layer_1"  >
<rect style="stroke: none; stroke-width: 1; stroke-dasharray: none; stroke-linecap: butt; stroke-dashoffset: 0; stroke-linejoin: miter; stroke-miterlimit: 4; fill: rgb(0,0,0); fill-rule: nonzero; opacity: 1;" vector-effect="non-scaling-stroke"  x="-1" y="-1" rx="0" ry="0" width="2" height="2" />
</g>
		<g transform="matrix(1 0 0 1 16 3)" id="Layer_1"  >
<rect style="stroke: none; stroke-width: 1; stroke-dasharray: none; stroke-linecap: butt; stroke-dashoffset: 0; stroke-linejoin: miter; stroke-miterlimit: 4; fill: rgb(0,0,0); fill-rule: nonzero; opacity: 1;" vector-effect="non-scaling-stroke"  x="-1" y="-1" rx="0" ry="0" width="2" height="2" />
</g>
		<g transform="matrix(1 0 0 1 12 6)" id="Layer_1"  >
<rect style="stroke: none; stroke-width: 1; stroke-dasharray: none; stroke-linecap: butt; stroke-dashoffset: 0; stroke-linejoin: miter; stroke-miterlimit: 4; fill: rgb(0,0,0); fill-rule: nonzero; opacity: 1;" vector-effect="non-scaling-stroke"  x="-1" y="-1" rx="0" ry="0" width="2" height="2" />
</g>
		<g transform="matrix(1 0 0 1 3 7)" id="Layer_1"  >
<rect style="stroke: none; stroke-width: 1; stroke-dasharray: none; stroke-linecap: butt; stroke-dashoffset: 0; stroke-linejoin: miter; stroke-miterlimit: 4; fill: rgb(0,0,0); fill-rule: nonzero; opacity: 1;" vector-effect="non-scaling-stroke"  x="-1" y="-1" rx="0" ry="0" width="2" height="2" />
</g>
		<g transform="matrix(1 0 0 1 -2 8)" id="Layer_1"  >
<rect style="stroke: none; stroke-width: 1; stroke-dasharray: none; stroke-linecap: butt; stroke-dashoffset: 0; stroke-linejoin: miter; stroke-miterlimit: 4; fill: rgb(0,0,0); fill-rule: nonzero; opacity: 1;" vector-effect="non-scaling-stroke"  x="-1" y="-1" rx="0" ry="0" width="2" height="2" />
</g>
		<g transform="matrix(1 0 0 1 -12 12)" id="Layer_1"  >
<rect style="stroke: none; stroke-width: 1; stroke-dasharray: none; stroke-linecap: butt; stroke-dashoffset: 0; stroke-linejoin: miter; stroke-miterlimit: 4; fill: rgb(0,0,0); fill-rule: nonzero; opacity: 1;" vector-effect="non-scaling-stroke"  x="-1" y="-1" rx="0" ry="0" width="2" height="2" />
</g>
		<g transform="matrix(1 0 0 1 -17.5 6.5)" id="Layer_1"  >
<polygon style="stroke: none; stroke-width: 1; stroke-dasharray: none; stroke-linecap: butt; stroke-dashoffset: 0; stroke-linejoin: miter; stroke-miterlimit: 4; fill: rgb(0,0,0); fill-rule: nonzero; opacity: 1;" vector-effect="non-scaling-stroke"  points="1.79,-3.21 0,-1.41 -1.79,-3.21 -3.21,-1.79 -1.41,0 -3.21,1.79 -1.79,3.21 0,1.41 1.79,3.21 3.21,1.79 1.41,0 3.21,-1.79 " />
</g>
		<g transform="matrix(1 0 0 1 -0.5 -13.5)" id="Layer_1"  >
<polygon style="stroke: none; stroke-width: 1; stroke-dasharray: none; stroke-linecap: butt; stroke-dashoffset: 0; stroke-linejoin: miter; stroke-miterlimit: 4; fill: rgb(0,0,0); fill-rule: nonzero; opacity: 1;" vector-effect="non-scaling-stroke"  points="3.21,1.79 1.41,0 3.21,-1.79 1.79,-3.21 0,-1.41 -1.79,-3.21 -3.21,-1.79 -1.41,0 -3.21,1.79 -1.79,3.21 0,1.41 1.79,3.21 " />
</g>
</g>
</g>
</svg>